<svg width="196" height="196" viewBox="0 0 196 196" fill="none" xmlns="http://www.w3.org/2000/svg">
<g id="cloud">
<g id="Cloud Group">
<path id="Vector" d="M116.732 71.3875C116.719 71.3875 116.707 71.3895 116.694 71.3895C116.699 71.1339 116.732 70.8854 116.732 70.6288C116.732 50.3993 100.5 34 80.477 34C60.454 34 44.222 50.3993 44.222 70.6288C44.222 70.653 44.226 70.6752 44.226 70.6995C28.52 71.436 16 84.4963 16 100.547C16 117.071 29.258 130.465 45.613 130.465H116.732C132.88 130.465 145.97 117.24 145.97 100.926C145.969 84.6124 132.879 71.3875 116.732 71.3875Z" fill="#82D2EC" style="fill:#82D2EC;fill:color(display-p3 0.5098 0.8235 0.9255);fill-opacity:1;"/>
<path id="Vector_2" d="M149.858 103.825C149.845 103.825 149.833 103.827 149.82 103.827C149.825 103.571 149.858 103.322 149.858 103.066C149.858 82.8363 133.626 66.437 113.603 66.437C93.58 66.437 77.348 82.8363 77.348 103.066C77.348 103.09 77.352 103.112 77.352 103.136C61.645 103.873 49.126 116.934 49.126 132.984C49.126 149.508 62.384 162.902 78.739 162.902H149.858C166.006 162.902 179.096 149.677 179.096 133.363C179.095 117.049 166.005 103.825 149.858 103.825Z" fill="#42BFEC" style="fill:#42BFEC;fill:color(display-p3 0.2588 0.7490 0.9255);fill-opacity:1;"/>
</g>
</g>
</svg>
