<svg width="196" height="196" viewBox="0 0 196 196" fill="none" xmlns="http://www.w3.org/2000/svg">
<g id="Light">
<g id="Icon">
<path id="Vector" d="M133.77 68.8081C133.757 68.8081 133.745 68.8098 133.732 68.8098C133.737 68.5992 133.77 68.3944 133.77 68.1829C133.77 51.5134 117.371 38 97.1417 38C76.9123 38 60.513 51.5134 60.513 68.1829C60.513 68.2029 60.517 68.2212 60.517 68.2411C44.6491 68.848 32 79.61 32 92.8362C32 106.452 45.3947 117.49 61.9183 117.49H133.77C150.084 117.49 163.31 106.592 163.31 93.1484C163.31 79.7066 150.084 68.8081 133.77 68.8081Z" fill="#42BFEC" style="fill:#42BFEC;fill:color(display-p3 0.2588 0.7490 0.9255);fill-opacity:1;"/>
<path id="Vector_2" d="M128.929 110.104H92.5277L110.985 83.0658H92.5277L66.3799 121.878H94.5786L83.2985 157L128.929 110.104Z" fill="#FAAF40" style="fill:#FAAF40;fill:color(display-p3 0.9804 0.6863 0.2510);fill-opacity:1;"/>
</g>
</g>
</svg>
