<svg width="196" height="196" viewBox="0 0 196 196" fill="none" xmlns="http://www.w3.org/2000/svg">
<g id="rain">
<g id="Weather Icon">
<path id="Vector" d="M151.908 55.8065C151.888 55.8065 151.87 55.8095 151.851 55.8095C151.858 55.428 151.908 55.057 151.908 54.6739C151.908 24.4784 127.429 0 97.2339 0C67.0384 0 42.5599 24.4784 42.5599 54.6739C42.5599 54.7101 42.566 54.7433 42.566 54.7795C18.8807 55.8788 0 75.3733 0 99.3316C0 123.996 19.9936 143.989 44.6576 143.989H151.908C176.26 143.989 196 124.249 196 99.8971C195.998 75.5468 176.258 55.8065 151.908 55.8065Z" fill="#42BFEC" style="fill:#42BFEC;fill:color(display-p3 0.2588 0.7490 0.9255);fill-opacity:1;"/>
<path id="Vector_2" d="M67.1606 123.35L49.895 160.039C46.0993 168.106 45.9319 177.606 50.1786 185.444C53.1826 190.987 58.3325 195.738 67.1591 195.738C75.9872 195.738 81.1356 190.986 84.1396 185.444C88.3878 177.606 88.2189 168.106 84.4246 160.039L67.1606 123.35Z" fill="#ADE0F3" style="fill:#ADE0F3;fill:color(display-p3 0.6784 0.8784 0.9529);fill-opacity:1;"/>
<path id="Vector_3" d="M124.048 98.1417L106.783 134.831C102.987 142.897 102.82 152.398 107.066 160.235C110.07 165.779 115.22 170.529 124.047 170.529C132.873 170.529 138.023 165.777 141.027 160.235C145.274 152.398 145.107 142.897 141.311 134.831L124.048 98.1417Z" fill="#ADE0F3" style="fill:#ADE0F3;fill:color(display-p3 0.6784 0.8784 0.9529);fill-opacity:1;"/>
</g>
</g>
</svg>
