<svg width="196" height="196" viewBox="0 0 196 196" fill="none" xmlns="http://www.w3.org/2000/svg">
<g id="semiSun">
<g id="Weather Icon">
<path id="Vector" d="M95.3885 113.272C106.228 100.646 104.832 81.5781 92.2702 70.6831C79.7089 59.7881 60.7391 61.1914 49.9 73.8175C39.0609 86.4435 40.457 105.511 53.0183 116.406C65.5796 127.301 84.5494 125.898 95.3885 113.272Z" fill="#FAAF40" style="fill:#FAAF40;fill:color(display-p3 0.9804 0.6863 0.2510);fill-opacity:1;"/>
<g id="Sun Ray">
<path id="Vector_2" d="M72.6507 55.1717C70.5591 55.1717 68.8644 53.4683 68.8644 51.3658V34.8058C68.8644 32.7034 70.5591 31 72.6507 31C74.7424 31 76.437 32.7034 76.437 34.8058V51.3658C76.437 53.4683 74.7424 55.1717 72.6507 55.1717Z" fill="#FAAF40" style="fill:#FAAF40;fill:color(display-p3 0.9804 0.6863 0.2510);fill-opacity:1;"/>
</g>
<g id="Sun Ray_2">
<path id="Vector_3" d="M30.2614 97.7784H13.7863C11.6947 97.7784 10 96.075 10 93.9726C10 91.8701 11.6947 90.1667 13.7863 90.1667H30.2614C32.3531 90.1667 34.0477 91.8701 34.0477 93.9726C34.0477 96.075 32.3531 97.7784 30.2614 97.7784Z" fill="#FAAF40" style="fill:#FAAF40;fill:color(display-p3 0.9804 0.6863 0.2510);fill-opacity:1;"/>
</g>
<g id="Sun Ray_3">
<path id="Vector_4" d="M42.6778 67.651C41.7088 67.651 40.7399 67.2792 40.0011 66.5356L28.3517 54.8261C26.8732 53.341 26.8732 50.9304 28.3517 49.4442C29.8313 47.958 32.2264 47.958 33.706 49.4442L45.3555 61.1537C46.834 62.6388 46.834 65.0495 45.3555 66.5356C44.6147 67.2792 43.6457 67.651 42.6778 67.651Z" fill="#FAAF40" style="fill:#FAAF40;fill:color(display-p3 0.9804 0.6863 0.2510);fill-opacity:1;"/>
</g>
<g id="Sun Ray_4">
<path id="Vector_5" d="M31.0273 139.615C30.0583 139.615 29.0894 139.244 28.3506 138.5C26.8721 137.015 26.8721 134.604 28.3506 133.118L40.0001 121.409C41.4786 119.922 43.8748 119.922 45.3544 121.409C46.8329 122.894 46.8329 125.304 45.3544 126.79L33.705 138.5C32.9652 139.245 31.9962 139.615 31.0273 139.615Z" fill="#FAAF40" style="fill:#FAAF40;fill:color(display-p3 0.9804 0.6863 0.2510);fill-opacity:1;"/>
</g>
<g id="Sun Ray_5">
<path id="Vector_6" d="M102.624 67.651C101.655 67.651 100.686 67.2792 99.9469 66.5356C98.4684 65.0505 98.4684 62.6409 99.9469 61.1537L111.595 49.4442C113.072 47.958 115.47 47.958 116.95 49.4442C118.428 50.9294 118.428 53.339 116.95 54.8261L105.301 66.5356C104.562 67.2792 103.592 67.651 102.624 67.651Z" fill="#FAAF40" style="fill:#FAAF40;fill:color(display-p3 0.9804 0.6863 0.2510);fill-opacity:1;"/>
</g>
<path id="Vector_7" d="M156.285 105.295C156.272 105.295 156.26 105.297 156.247 105.297C156.252 105.042 156.285 104.793 156.285 104.536C156.285 84.3069 139.97 67.9076 119.844 67.9076C99.7187 67.9076 83.4035 84.3069 83.4035 104.536C83.4035 104.561 83.4075 104.583 83.4075 104.607C67.621 105.344 55.0367 118.404 55.0367 134.455C55.0367 150.978 68.3628 164.373 84.8016 164.373H156.285C172.516 164.373 185.673 151.148 185.673 134.834C185.673 118.52 172.516 105.295 156.285 105.295Z" fill="#42BFEC" style="fill:#42BFEC;fill:color(display-p3 0.2588 0.7490 0.9255);fill-opacity:1;"/>
</g>
</g>
</svg>
