<svg width="196" height="196" viewBox="0 0 196 196" fill="none" xmlns="http://www.w3.org/2000/svg">
<g id="Sun">
<g id="Sun Icon">
<path id="Vector" d="M143.679 108.288C149.719 83.0488 134.154 57.6922 108.914 51.6529C83.6747 45.6136 58.3181 61.1784 52.2788 86.418C46.2395 111.658 61.8043 137.014 87.0439 143.053C112.283 149.093 137.64 133.528 143.679 108.288Z" fill="#FAAF40" style="fill:#FAAF40;fill:color(display-p3 0.9804 0.6863 0.2510);fill-opacity:1;"/>
<g id="Ray">
<path id="Vector_2" d="M98.0008 37.617C94.7289 37.617 92.078 34.9661 92.078 31.6942V5.92281C92.078 2.65088 94.7289 0 98.0008 0C101.273 0 103.924 2.65088 103.924 5.92281V31.6942C103.924 34.9661 101.273 37.617 98.0008 37.617Z" fill="#FAAF40" style="fill:#FAAF40;fill:color(display-p3 0.9804 0.6863 0.2510);fill-opacity:1;"/>
</g>
<g id="Ray_2">
<path id="Vector_3" d="M98.0008 196C94.7289 196 92.078 193.349 92.078 190.077V164.306C92.078 161.034 94.7289 158.383 98.0008 158.383C101.273 158.383 103.924 161.034 103.924 164.306V190.077C103.924 193.349 101.273 196 98.0008 196Z" fill="#FAAF40" style="fill:#FAAF40;fill:color(display-p3 0.9804 0.6863 0.2510);fill-opacity:1;"/>
</g>
<g id="Ray_3">
<path id="Vector_4" d="M190.077 103.924H164.306C161.034 103.924 158.383 101.273 158.383 98.0008C158.383 94.7289 161.034 92.078 164.306 92.078H190.077C193.349 92.078 196 94.7289 196 98.0008C196 101.273 193.349 103.924 190.077 103.924Z" fill="#FAAF40" style="fill:#FAAF40;fill:color(display-p3 0.9804 0.6863 0.2510);fill-opacity:1;"/>
</g>
<g id="Ray_4">
<path id="Vector_5" d="M5.92281 103.924H31.6942C34.9661 103.924 37.617 101.273 37.617 98.0008C37.617 94.7289 34.9661 92.078 31.6942 92.078H5.92281C2.65088 92.078 0 94.7289 0 98.0008C0 101.273 2.65088 103.924 5.92281 103.924Z" fill="#FAAF40" style="fill:#FAAF40;fill:color(display-p3 0.9804 0.6863 0.2510);fill-opacity:1;"/>
</g>
<g id="Ray_5">
<path id="Vector_6" d="M51.1152 57.0379C49.5995 57.0379 48.0838 56.4593 46.9282 55.3021L28.7053 37.0793C26.3925 34.768 26.3925 31.0165 28.7053 28.7037C31.0182 26.3908 34.7665 26.3908 37.0809 28.7037L55.3037 46.9265C57.6166 49.2378 57.6166 52.9893 55.3037 55.3021C54.145 56.4593 52.6293 57.0379 51.1152 57.0379Z" fill="#FAAF40" style="fill:#FAAF40;fill:color(display-p3 0.9804 0.6863 0.2510);fill-opacity:1;"/>
</g>
<g id="Ray_6">
<path id="Vector_7" d="M163.108 169.032C161.592 169.032 160.076 168.453 158.921 167.296L140.699 149.073C138.387 146.761 138.387 143.011 140.699 140.698C143.012 138.385 146.761 138.385 149.075 140.698L167.296 158.921C169.609 161.234 169.609 164.983 167.296 167.296C166.138 168.453 164.623 169.032 163.108 169.032Z" fill="#FAAF40" style="fill:#FAAF40;fill:color(display-p3 0.9804 0.6863 0.2510);fill-opacity:1;"/>
</g>
<g id="Ray_7">
<path id="Vector_8" d="M32.8923 169.032C31.3766 169.032 29.861 168.453 28.7053 167.296C26.3925 164.985 26.3925 161.234 28.7053 158.921L46.9282 140.698C49.241 138.385 52.9893 138.385 55.3037 140.698C57.6166 143.009 57.6166 146.761 55.3037 149.073L37.0809 167.296C35.9221 168.453 34.4064 169.032 32.8923 169.032Z" fill="#FAAF40" style="fill:#FAAF40;fill:color(display-p3 0.9804 0.6863 0.2510);fill-opacity:1;"/>
</g>
<g id="Ray_8">
<path id="Vector_9" d="M144.886 57.0379C143.371 57.0379 141.855 56.4593 140.699 55.3021C138.387 52.9908 138.387 49.2409 140.699 46.9265L158.921 28.7037C161.23 26.3908 164.982 26.3908 167.296 28.7037C169.609 31.0149 169.609 34.7649 167.296 37.0793L149.075 55.3021C147.919 56.4593 146.402 57.0379 144.886 57.0379Z" fill="#FAAF40" style="fill:#FAAF40;fill:color(display-p3 0.9804 0.6863 0.2510);fill-opacity:1;"/>
</g>
</g>
</g>
</svg>
