<svg width="196" height="196" viewBox="0 0 196 196" fill="none" xmlns="http://www.w3.org/2000/svg">
<g id="wind">
<g id="Weather Icon">
<path id="Vector" d="M135.175 60.1958C135.162 60.1958 135.15 60.1978 135.137 60.1978C135.142 59.9435 135.175 59.6962 135.175 59.4409C135.175 39.3152 118.943 23 98.92 23C78.897 23 62.665 39.3152 62.665 59.4409C62.665 59.4651 62.669 59.4872 62.669 59.5113C46.963 60.244 34.443 73.2374 34.443 89.2058C34.443 105.645 47.701 118.971 64.056 118.971H135.175C151.322 118.971 164.413 105.814 164.413 89.5837C164.412 73.3529 151.322 60.1958 135.175 60.1958Z" fill="#42BFEC" style="fill:#42BFEC;fill:color(display-p3 0.2588 0.7490 0.9255);fill-opacity:1;"/>
<g id="Raindrop Group">
<path id="Vector_2" d="M143.959 137H54.657C52.577 137 50.89 135.304 50.89 133.213C50.89 131.123 52.577 129.427 54.657 129.427H143.959C146.039 129.427 147.726 131.123 147.726 133.213C147.726 135.304 146.038 137 143.959 137Z" fill="#ADE0F3" style="fill:#ADE0F3;fill:color(display-p3 0.6784 0.8784 0.9529);fill-opacity:1;"/>
</g>
<g id="Wind Swirl">
<path id="Vector_3" d="M182.552 137H163.585C161.505 137 159.818 135.304 159.818 133.213C159.818 131.123 161.505 129.427 163.585 129.427H182.552C184.632 129.427 186.319 131.123 186.319 133.213C186.319 135.304 184.632 137 182.552 137Z" fill="#ADE0F3" style="fill:#ADE0F3;fill:color(display-p3 0.6784 0.8784 0.9529);fill-opacity:1;"/>
</g>
<g id="Sun Ray">
<path id="Vector_4" d="M178.822 172.024H39.093C37.013 172.024 35.3259 170.329 35.3259 168.238C35.3259 166.147 37.013 164.452 39.093 164.452H178.822C180.902 164.452 182.589 166.147 182.589 168.238C182.589 170.329 180.902 172.024 178.822 172.024Z" fill="#ADE0F3" style="fill:#ADE0F3;fill:color(display-p3 0.6784 0.8784 0.9529);fill-opacity:1;"/>
</g>
<g id="Sun Ray_2">
<path id="Vector_5" d="M118.605 154.511H13.767C11.687 154.511 10 152.815 10 150.725C10 148.634 11.687 146.938 13.767 146.938H118.605C120.685 146.938 122.372 148.634 122.372 150.725C122.372 152.814 120.685 154.511 118.605 154.511Z" fill="#ADE0F3" style="fill:#ADE0F3;fill:color(display-p3 0.6784 0.8784 0.9529);fill-opacity:1;"/>
</g>
<g id="Sun Ray_3">
<path id="Vector_6" d="M170.717 154.511H140.037C137.957 154.511 136.27 152.815 136.27 150.725C136.27 148.634 137.957 146.938 140.037 146.938H170.717C172.797 146.938 174.484 148.634 174.484 150.725C174.484 152.814 172.797 154.511 170.717 154.511Z" fill="#ADE0F3" style="fill:#ADE0F3;fill:color(display-p3 0.6784 0.8784 0.9529);fill-opacity:1;"/>
</g>
</g>
</g>
</svg>
